<svg width="482" height="90" viewBox="0 0 482 90" fill="none" xmlns="http://www.w3.org/2000/svg">
<path d="M136.644 73.0228C131.376 73.0228 126.82 71.9515 122.975 69.809C119.131 67.62 116.164 64.5459 114.076 60.587C111.988 56.5814 110.943 51.854 110.943 46.4045C110.943 41.0017 112.035 36.2975 114.218 32.292C116.402 28.2864 119.463 25.1891 123.402 23C127.342 20.7644 131.922 19.6466 137.143 19.6466C141.557 19.6466 145.473 20.4384 148.89 22.0219C152.355 23.559 155.179 25.748 157.362 28.5892C159.545 31.4303 160.898 34.7838 161.42 38.6496H149.246C148.486 36.0414 147.015 34.0386 144.832 32.6413C142.696 31.244 140.038 30.5454 136.858 30.5454C134.01 30.5454 131.542 31.1742 129.454 32.4317C127.413 33.6893 125.847 35.5057 124.755 37.8811C123.663 40.2099 123.118 43.0278 123.118 46.3347C123.118 49.5484 123.663 52.343 124.755 54.7184C125.894 57.0938 127.484 58.9335 129.525 60.2377C131.613 61.4952 134.058 62.124 136.858 62.124C140.086 62.124 142.815 61.4021 145.045 59.9582C147.324 58.4678 148.819 56.4417 149.531 53.88H161.491C160.874 57.6993 159.427 61.0527 157.148 63.9405C154.918 66.8282 152.046 69.0638 148.534 70.6474C145.022 72.231 141.059 73.0228 136.644 73.0228Z" fill="black"/>
<path d="M178.468 72.1844H167.504V19.5068H178.539V40.8853C179.631 39.3948 181.126 38.2304 183.025 37.3921C184.971 36.5537 187.107 36.1345 189.432 36.1345C193.656 36.1345 196.931 37.4154 199.257 39.977C201.63 42.4922 202.817 46.0319 202.817 50.5964V72.1844H191.853V53.1814C191.853 51.6909 191.592 50.4101 191.07 49.3388C190.548 48.2676 189.812 47.4292 188.863 46.8237C187.961 46.2182 186.869 45.9155 185.588 45.9155C184.164 45.9155 182.906 46.2182 181.814 46.8237C180.77 47.3826 179.94 48.1977 179.323 49.269C178.753 50.3402 178.468 51.5978 178.468 53.0416V72.1844Z" fill="black"/>
<path d="M221.43 73.0927C217.681 73.0927 214.69 72.0913 212.46 70.0885C210.276 68.0392 209.185 65.3145 209.185 61.9144C209.185 58.7006 210.3 56.139 212.531 54.2293C214.809 52.3197 218.084 51.2019 222.356 50.8759L232.323 50.1073V49.5484C232.323 48.384 232.085 47.4292 231.611 46.684C231.136 45.8922 230.448 45.31 229.546 44.9374C228.692 44.5182 227.6 44.3086 226.271 44.3086C223.946 44.3086 222.166 44.7278 220.932 45.5662C219.745 46.4045 219.152 47.6155 219.152 49.1991H210.039C210.039 46.5443 210.727 44.2388 212.104 42.2826C213.48 40.3264 215.426 38.8126 217.942 37.7414C220.505 36.6701 223.471 36.1345 226.841 36.1345C230.306 36.1345 233.225 36.74 235.598 37.951C238.018 39.162 239.846 40.9319 241.08 43.2607C242.361 45.5895 243.002 48.4306 243.002 51.7841V72.1844H233.32L232.608 67.5734C232.038 69.157 230.685 70.4844 228.55 71.5556C226.461 72.5803 224.088 73.0927 221.43 73.0927ZM225.275 65.1281C227.363 65.1281 229.072 64.6391 230.401 63.661C231.73 62.6363 232.394 61.1226 232.394 59.1198V57.2335L226.841 57.7225C224.468 57.9088 222.783 58.3047 221.786 58.9102C220.837 59.4691 220.362 60.3075 220.362 61.4253C220.362 62.6829 220.766 63.6144 221.572 64.2199C222.379 64.8254 223.613 65.1281 225.275 65.1281Z" fill="black"/>
<path d="M250.866 72.1844V37.2523H261.829V72.1844H250.866ZM256.276 31.8029C254.52 31.8029 253.025 31.2207 251.791 30.0563C250.605 28.8453 250.011 27.3782 250.011 25.6549C250.011 23.9316 250.605 22.4877 251.791 21.3233C253.025 20.1589 254.52 19.5767 256.276 19.5767C257.985 19.5767 259.433 20.1589 260.619 21.3233C261.853 22.4877 262.47 23.9316 262.47 25.6549C262.47 27.3782 261.853 28.8453 260.619 30.0563C259.433 31.2207 257.985 31.8029 256.276 31.8029Z" fill="black"/>
<path d="M280.019 72.1844H269.055V37.2523H279.378L280.09 40.8853C281.181 39.3948 282.676 38.2304 284.575 37.3921C286.521 36.5537 288.657 36.1345 290.982 36.1345C295.207 36.1345 298.482 37.4154 300.807 39.977C303.18 42.4922 304.367 46.0319 304.367 50.5964V72.1844H293.403V53.1814C293.403 50.9923 292.833 49.2457 291.694 47.9416C290.555 46.5909 289.036 45.9155 287.138 45.9155C284.955 45.9155 283.222 46.5676 281.941 47.8717C280.659 49.1292 280.019 50.8526 280.019 53.0416V72.1844Z" fill="black"/>
<path d="M322.116 20.4849V72.1844H310.583V20.4849H322.116ZM312.647 72.1844V61.7048H342.905V72.1844H312.647Z" fill="black"/>
<path d="M350.79 72.1844V37.2523H361.754V72.1844H350.79ZM356.201 31.8029C354.445 31.8029 352.95 31.2207 351.716 30.0563C350.529 28.8453 349.936 27.3782 349.936 25.6549C349.936 23.9316 350.529 22.4877 351.716 21.3233C352.95 20.1589 354.445 19.5767 356.201 19.5767C357.909 19.5767 359.357 20.1589 360.544 21.3233C361.778 22.4877 362.395 23.9316 362.395 25.6549C362.395 27.3782 361.778 28.8453 360.544 30.0563C359.357 31.2207 357.909 31.8029 356.201 31.8029Z" fill="black"/>
<path d="M369.199 54.0896C369.199 50.5498 369.911 47.4292 371.335 44.7278C372.806 42.0264 374.824 39.9072 377.387 38.3702C379.997 36.8332 382.963 36.0646 386.286 36.0646C389.086 36.0646 391.483 36.6236 393.477 37.7414C395.517 38.8592 396.918 40.3264 397.677 42.1428L396.609 42.8415L397.463 37.2523H407.787V69.9488C407.787 74.0941 407.003 77.6571 405.437 80.638C403.871 83.6654 401.64 85.971 398.745 87.5545C395.85 89.1847 392.361 89.9998 388.279 89.9998C382.821 89.9998 378.383 88.5559 374.966 85.6682C371.549 82.8271 369.579 78.938 369.057 74.0009H380.163C380.258 75.9571 381.018 77.4708 382.441 78.5421C383.865 79.6599 385.788 80.2188 388.208 80.2188C390.866 80.2188 392.954 79.4969 394.473 78.053C396.04 76.6092 396.823 74.653 396.823 72.1844V64.7788L398.033 65.6871C397.274 67.5035 395.802 68.9707 393.619 70.0885C391.436 71.2063 388.92 71.7652 386.072 71.7652C382.75 71.7652 379.807 71.02 377.244 69.5296C374.729 68.0392 372.759 65.9665 371.335 63.3117C369.911 60.6568 369.199 57.5828 369.199 54.0896ZM380.234 53.8101C380.234 55.4869 380.59 56.9773 381.302 58.2815C382.014 59.539 382.987 60.5404 384.221 61.2856C385.455 62.0308 386.879 62.4034 388.493 62.4034C390.154 62.4034 391.602 62.0541 392.836 61.3555C394.117 60.6103 395.09 59.6089 395.755 58.3513C396.467 57.0472 396.823 55.5335 396.823 53.8101C396.823 52.0868 396.467 50.6197 395.755 49.4087C395.09 48.1512 394.117 47.173 392.836 46.4744C391.602 45.7758 390.13 45.4264 388.422 45.4264C386.808 45.4264 385.384 45.7758 384.15 46.4744C382.916 47.173 381.943 48.1512 381.231 49.4087C380.567 50.6663 380.234 52.1334 380.234 53.8101Z" fill="black"/>
<path d="M425.996 72.1844H415.032V19.5068H426.067V40.8853C427.158 39.3948 428.654 38.2304 430.552 37.3921C432.498 36.5537 434.634 36.1345 436.96 36.1345C441.184 36.1345 444.459 37.4154 446.784 39.977C449.157 42.4922 450.344 46.0319 450.344 50.5964V72.1844H439.38V53.1814C439.38 51.6909 439.119 50.4101 438.597 49.3388C438.075 48.2676 437.339 47.4292 436.39 46.8237C435.488 46.2182 434.397 45.9155 433.115 45.9155C431.691 45.9155 430.433 46.2182 429.342 46.8237C428.298 47.3826 427.467 48.1977 426.85 49.269C426.28 50.3402 425.996 51.5978 425.996 53.0416V72.1844Z" fill="black"/>
<path d="M456.861 37.2523H481.352V46.195H456.861V37.2523ZM474.588 72.1844H463.624V26.4234H474.588V72.1844Z" fill="black"/>
<path fill-rule="evenodd" clip-rule="evenodd" d="M90 45C90 69.8528 69.8528 90 45 90C20.1472 90 0 69.8528 0 45C0 20.1472 20.1472 0 45 0C69.8528 0 90 20.1472 90 45ZM44.8952 66.7904C39.0882 66.7904 33.5191 64.4836 29.413 60.3774C25.3068 56.2713 23 50.7022 23 44.8952C23 39.0882 25.3068 33.5191 29.413 29.413C33.5191 25.3068 39.0882 23 44.8952 23V35.4694C42.3953 35.4694 39.9978 36.4624 38.2301 38.2301C36.4624 39.9978 35.4694 42.3953 35.4694 44.8952C35.4694 47.3951 36.4624 49.7926 38.2301 51.5602C39.9978 53.3279 42.3953 54.321 44.8952 54.321L44.8952 66.7904ZM58.4152 65.419C61.0716 66.5233 63.9188 67.0917 66.7941 67.0917V54.5774C65.5563 54.5774 64.3306 54.3327 63.187 53.8573C62.0434 53.3819 61.0043 52.6851 60.129 51.8067C59.2538 50.9283 58.5595 49.8854 58.0858 48.7377C57.624 47.6188 57.3807 46.4216 57.3687 45.2112C57.3684 45.18 57.3684 37.1954 57.3684 35.5986L44.8989 35.5986V36.4222C44.8989 38.9933 44.8989 45.1837 44.899 45.2112C44.9112 48.065 45.4771 50.8895 46.5655 53.5267C47.6659 56.1927 49.2787 58.6151 51.3118 60.6556C53.345 62.6961 55.7587 64.3147 58.4152 65.419Z" fill="black"/>
</svg>
